<svg xmlns="http://www.w3.org/2000/svg" viewBox="0 0 512 512" width="512" height="512">
  <defs>
    <linearGradient id="bgGrad" x1="0%" y1="0%" x2="100%" y2="100%">
      <stop offset="0%" stop-color="#1e1b4b"/>
      <stop offset="50%" stop-color="#0f172a"/>
      <stop offset="100%" stop-color="#030712"/>
    </linearGradient>
    <linearGradient id="heartGrad" x1="0%" y1="0%" x2="100%" y2="100%">
      <stop offset="0%" stop-color="#f43f5e"/>
      <stop offset="40%" stop-color="#e11d48"/>
      <stop offset="100%" stop-color="#be123c"/>
    </linearGradient>
    <filter id="glow" x="-20%" y="-20%" width="140%" height="140%">
      <feDropShadow dx="0" dy="8" stdDeviation="16" flood-color="#f43f5e" flood-opacity="0.45"/>
    </filter>
  </defs>

  <!-- Rounded App Background -->
  <rect width="512" height="512" rx="128" fill="url(#bgGrad)"/>
  <rect width="504" height="504" x="4" y="4" rx="124" fill="none" stroke="#334155" stroke-width="4"/>

  <!-- Glowing Heart with EKG Pulse Line -->
  <g filter="url(#glow)" transform="translate(256, 256) scale(0.72) translate(-256, -256)">
    <!-- Heart Shape -->
    <path fill="url(#heartGrad)" d="M256,448l-30.8-28C116,321.2,44,255.9,44,175.4C44,110.1,95.1,59,160.4,59c36.9,0,72.3,17.2,95.6,44.1 C279.3,76.2,314.7,59,351.6,59C416.9,59,468,110.1,468,175.4c0,80.5-72,145.8-181.2,244.6L256,448z"/>
    
    <!-- White EKG Pulse Line -->
    <path fill="none" stroke="#ffffff" stroke-width="22" stroke-linecap="round" stroke-linejoin="round" d="M100,240 h65 l25,-45 l35,90 l40,-130 l35,115 l25,-30 h85" />
  </g>
</svg>